<svg width="28" height="28" viewBox="0 0 28 28" fill="none" xmlns="http://www.w3.org/2000/svg">
<path d="M17.0625 8.09379C16.2772 8.09357 15.4961 8.2078 14.7437 8.43286C14.4254 7.8724 14.015 7.36954 13.5297 6.94536L14.6781 5.30473C14.7763 5.16054 14.8141 4.98363 14.7835 4.8119C14.7528 4.64016 14.6561 4.48727 14.5141 4.38598C14.3716 4.28838 14.1964 4.25087 14.0265 4.28158C13.8565 4.3123 13.7055 4.40875 13.6062 4.55004L12.4578 6.19067C11.4791 5.65335 10.3673 5.4067 9.25312 5.47973L8.90312 3.51098C8.86362 3.34996 8.76463 3.20986 8.62605 3.11884C8.48747 3.02783 8.31958 2.99263 8.15611 3.02034C7.99265 3.04804 7.84573 3.1366 7.74488 3.26819C7.64404 3.39979 7.59674 3.56469 7.6125 3.72973L7.9625 5.70942C6.88799 6.0137 5.92604 6.62584 5.19531 7.47036L3.55469 6.32192C3.4846 6.26721 3.40414 6.22732 3.31817 6.20466C3.2322 6.182 3.14253 6.17704 3.05459 6.19008C2.96664 6.20313 2.88227 6.23391 2.80658 6.28055C2.7309 6.3272 2.66548 6.38873 2.6143 6.46143C2.56312 6.53412 2.52724 6.61645 2.50884 6.70343C2.49044 6.79041 2.48991 6.88023 2.50728 6.96742C2.52465 7.05461 2.55955 7.13736 2.60987 7.21066C2.66018 7.28395 2.72487 7.34626 2.8 7.39379L4.44062 8.54223C3.90273 9.52075 3.65605 10.6327 3.72969 11.7469L1.76094 12.0969C1.67565 12.1101 1.59387 12.1403 1.52045 12.1856C1.44703 12.231 1.38345 12.2906 1.33348 12.361C1.28351 12.4314 1.24816 12.511 1.22953 12.5953C1.2109 12.6796 1.20936 12.7667 1.225 12.8516C1.2508 13.0042 1.32971 13.1428 1.44779 13.2429C1.56587 13.343 1.71553 13.3981 1.87031 13.3985H1.97969L3.95937 13.0485C4.13026 13.6362 4.3923 14.1935 4.73594 14.7C4.14244 15.2084 3.66601 15.8391 3.33939 16.549C3.01276 17.2589 2.84368 18.0311 2.84375 18.8125C2.84375 19.5307 2.9852 20.2418 3.26003 20.9053C3.53486 21.5688 3.93769 22.1717 4.44551 22.6795C5.4711 23.7051 6.8621 24.2813 8.3125 24.2813H17.0625C19.2091 24.2813 21.2678 23.4286 22.7856 21.9107C24.3035 20.3928 25.1562 18.3341 25.1562 16.1875C25.1562 14.0409 24.3035 11.9823 22.7856 10.4644C21.2678 8.94652 19.2091 8.09379 17.0625 8.09379ZM5.10781 12.1844H5.09687V12.1625C4.88779 10.97 5.15911 9.7432 5.85156 8.75004H5.8625C5.8625 8.73911 5.87344 8.73911 5.87344 8.72817C6.21741 8.23991 6.65435 7.82434 7.15923 7.50527C7.66411 7.18621 8.227 6.96991 8.81562 6.86879C8.81562 6.86589 8.81678 6.86311 8.81883 6.86106C8.82088 6.85901 8.82366 6.85786 8.82656 6.85786H8.84844C10.0189 6.65644 11.222 6.91507 12.2062 7.57973L12.2609 7.62348L12.3047 7.65629C12.7833 7.99828 13.1917 8.429 13.5078 8.92504C11.614 9.85819 10.1556 11.4891 9.43906 13.475C9.06901 13.3929 8.69152 13.3489 8.3125 13.3438C7.44521 13.3429 6.59025 13.5492 5.81875 13.9454C5.45756 13.4165 5.21504 12.8158 5.10781 12.1844ZM17.0625 22.9688H8.3125C7.21019 22.9688 6.15303 22.5309 5.37359 21.7515C4.59414 20.972 4.15625 19.9148 4.15625 18.8125C4.15625 17.7102 4.59414 16.6531 5.37359 15.8736C6.15303 15.0942 7.21019 14.6563 8.3125 14.6563C8.57693 14.6546 8.84084 14.6803 9.1 14.7329C9.01196 15.2127 8.96802 15.6997 8.96875 16.1875C8.96875 16.3616 9.03789 16.5285 9.16096 16.6516C9.28403 16.7747 9.45095 16.8438 9.625 16.8438C9.79905 16.8438 9.96597 16.7747 10.089 16.6516C10.2121 16.5285 10.2812 16.3616 10.2812 16.1875C10.2812 14.8463 10.679 13.5353 11.4241 12.4201C12.1692 11.3049 13.2283 10.4357 14.4674 9.92248C15.7065 9.40923 17.07 9.27494 18.3855 9.53659C19.7009 9.79825 20.9092 10.4441 21.8576 11.3925C22.8059 12.3408 23.4518 13.5492 23.7134 14.8646C23.9751 16.18 23.8408 17.5435 23.3276 18.7826C22.8143 20.0217 21.9451 21.0808 20.83 21.8259C19.7148 22.5711 18.4037 22.9688 17.0625 22.9688Z" fill="black"/>
</svg>
