<svg width="28" height="28" viewBox="0 0 28 28" fill="none" xmlns="http://www.w3.org/2000/svg">
<path d="M14 6.78125C12.5723 6.78125 11.1766 7.20462 9.98948 7.99783C8.80236 8.79104 7.87711 9.91845 7.33074 11.2375C6.78437 12.5566 6.64142 14.008 6.91996 15.4083C7.19849 16.8086 7.88601 18.0949 8.89557 19.1044C9.90513 20.114 11.1914 20.8015 12.5917 21.08C13.992 21.3586 15.4434 21.2156 16.7625 20.6693C18.0816 20.1229 19.209 19.1976 20.0022 18.0105C20.7954 16.8234 21.2188 15.4277 21.2188 14C21.2159 12.0864 20.4544 10.2519 19.1012 8.89877C17.7481 7.54562 15.9136 6.78414 14 6.78125ZM14 19.9062C12.8319 19.9062 11.6899 19.5599 10.7187 18.9109C9.74739 18.2619 8.99037 17.3394 8.54334 16.2602C8.09631 15.181 7.97934 13.9934 8.20724 12.8477C8.43513 11.702 8.99765 10.6497 9.82365 9.82365C10.6497 8.99765 11.702 8.43513 12.8477 8.20724C13.9934 7.97934 15.181 8.09631 16.2602 8.54334C17.3394 8.99037 18.2619 9.74739 18.9109 10.7187C19.5599 11.6899 19.9062 12.8319 19.9062 14C19.9062 15.5664 19.284 17.0687 18.1763 18.1763C17.0687 19.284 15.5664 19.9062 14 19.9062ZM13.3438 3.9375V1.75C13.3438 1.57595 13.4129 1.40903 13.536 1.28596C13.659 1.16289 13.826 1.09375 14 1.09375C14.174 1.09375 14.341 1.16289 14.464 1.28596C14.5871 1.40903 14.6562 1.57595 14.6562 1.75V3.9375C14.6562 4.11155 14.5871 4.27847 14.464 4.40154C14.341 4.52461 14.174 4.59375 14 4.59375C13.826 4.59375 13.659 4.52461 13.536 4.40154C13.4129 4.27847 13.3438 4.11155 13.3438 3.9375ZM4.87812 5.79688C4.8178 5.73655 4.76995 5.66493 4.7373 5.58611C4.70465 5.50729 4.68785 5.42281 4.68785 5.3375C4.68785 5.25219 4.70465 5.16771 4.7373 5.08889C4.76995 5.01007 4.8178 4.93845 4.87812 4.87812C4.93845 4.8178 5.01007 4.76995 5.08889 4.7373C5.16771 4.70465 5.25219 4.68785 5.3375 4.68785C5.42281 4.68785 5.50729 4.70465 5.58611 4.7373C5.66493 4.76995 5.73655 4.8178 5.79688 4.87812L7.35 6.42031C7.47094 6.54483 7.53859 6.71158 7.53859 6.88516C7.53859 7.05874 7.47094 7.22548 7.35 7.35C7.28817 7.41106 7.21463 7.45901 7.13382 7.49096C7.053 7.52291 6.96656 7.53821 6.87969 7.53594C6.79456 7.53736 6.71001 7.52163 6.63109 7.48968C6.55217 7.45774 6.48049 7.41023 6.42031 7.35L4.87812 5.79688ZM4.59375 14C4.59375 14.174 4.52461 14.341 4.40154 14.464C4.27847 14.5871 4.11155 14.6562 3.9375 14.6562H1.75C1.57595 14.6562 1.40903 14.5871 1.28596 14.464C1.16289 14.341 1.09375 14.174 1.09375 14C1.09375 13.826 1.16289 13.659 1.28596 13.536C1.40903 13.4129 1.57595 13.3438 1.75 13.3438H3.9375C4.11155 13.3438 4.27847 13.4129 4.40154 13.536C4.52461 13.659 4.59375 13.826 4.59375 14ZM7.35 20.65C7.47094 20.7745 7.53859 20.9413 7.53859 21.1148C7.53859 21.2884 7.47094 21.4552 7.35 21.5797L5.79688 23.1219C5.73655 23.1822 5.66493 23.2301 5.58611 23.2627C5.50729 23.2954 5.42281 23.3122 5.3375 23.3122C5.25219 23.3122 5.16771 23.2954 5.08889 23.2627C5.01007 23.2301 4.93845 23.1822 4.87812 23.1219C4.8178 23.0615 4.76995 22.9899 4.7373 22.9111C4.70465 22.8323 4.68785 22.7478 4.68785 22.6625C4.68785 22.5772 4.70465 22.4927 4.7373 22.4139C4.76995 22.3351 4.8178 22.2635 4.87812 22.2031L6.42031 20.65C6.54483 20.5291 6.71158 20.4614 6.88516 20.4614C7.05874 20.4614 7.22548 20.5291 7.35 20.65ZM14.6562 24.0625V26.25C14.6562 26.424 14.5871 26.591 14.464 26.714C14.341 26.8371 14.174 26.9062 14 26.9062C13.826 26.9062 13.659 26.8371 13.536 26.714C13.4129 26.591 13.3438 26.424 13.3438 26.25V24.0625C13.3438 23.8885 13.4129 23.7215 13.536 23.5985C13.659 23.4754 13.826 23.4062 14 23.4062C14.174 23.4062 14.341 23.4754 14.464 23.5985C14.5871 23.7215 14.6562 23.8885 14.6562 24.0625ZM23.1219 22.2031C23.1822 22.2635 23.2301 22.3351 23.2627 22.4139C23.2954 22.4927 23.3122 22.5772 23.3122 22.6625C23.3122 22.7478 23.2954 22.8323 23.2627 22.9111C23.2301 22.9899 23.1822 23.0615 23.1219 23.1219C23.0615 23.1822 22.9899 23.2301 22.9111 23.2627C22.8323 23.2954 22.7478 23.3122 22.6625 23.3122C22.5772 23.3122 22.4927 23.2954 22.4139 23.2627C22.3351 23.2301 22.2635 23.1822 22.2031 23.1219L20.65 21.5797C20.5267 21.4564 20.4575 21.2892 20.4575 21.1148C20.4575 20.9405 20.5267 20.7733 20.65 20.65C20.7733 20.5267 20.9405 20.4575 21.1148 20.4575C21.2892 20.4575 21.4564 20.5267 21.5797 20.65L23.1219 22.2031ZM26.9062 14C26.9062 14.174 26.8371 14.341 26.714 14.464C26.591 14.5871 26.424 14.6562 26.25 14.6562H24.0625C23.8885 14.6562 23.7215 14.5871 23.5985 14.464C23.4754 14.341 23.4062 14.174 23.4062 14C23.4062 13.826 23.4754 13.659 23.5985 13.536C23.7215 13.4129 23.8885 13.3438 24.0625 13.3438H26.25C26.424 13.3438 26.591 13.4129 26.714 13.536C26.8371 13.659 26.9062 13.826 26.9062 14ZM23.1219 4.87812C23.1841 4.93737 23.2336 5.00864 23.2675 5.08761C23.3013 5.16657 23.3188 5.25159 23.3188 5.3375C23.3188 5.42341 23.3013 5.50843 23.2675 5.58739C23.2336 5.66636 23.1841 5.73763 23.1219 5.79688L21.5797 7.35C21.5195 7.41023 21.4478 7.45774 21.3689 7.48968C21.29 7.52163 21.2054 7.53736 21.1203 7.53594C21.0334 7.53821 20.947 7.52291 20.8662 7.49096C20.7854 7.45901 20.7118 7.41106 20.65 7.35C20.5291 7.22548 20.4614 7.05874 20.4614 6.88516C20.4614 6.71158 20.5291 6.54483 20.65 6.42031L22.2031 4.87812C22.2624 4.81591 22.3336 4.76638 22.4126 4.73254C22.4916 4.6987 22.5766 4.68125 22.6625 4.68125C22.7484 4.68125 22.8334 4.6987 22.9124 4.73254C22.9914 4.76638 23.0626 4.81591 23.1219 4.87812Z" fill="black"/>
</svg>
