<svg width="28" height="28" viewBox="0 0 28 28" fill="none" xmlns="http://www.w3.org/2000/svg">
<path d="M21.2357 14.875C23.847 14.875 26.145 13.3563 27.125 11.1059C26.3479 11.4439 25.4352 11.5768 24.5339 11.5768C22.8469 11.5768 21.2291 10.9067 20.0362 9.71379C18.8433 8.52093 18.1732 6.90306 18.1732 5.21609C18.1732 4.31484 18.3061 3.40211 18.6441 2.625C16.3937 3.605 14.875 5.90297 14.875 8.5143C14.8745 9.03375 14.9377 9.5513 15.0631 10.0554" fill="white"/>
<path d="M4.95523 16.7809C5.13802 16.7525 5.30719 16.6672 5.43867 16.5371C5.57015 16.407 5.65723 16.2387 5.6875 16.0563C6.34867 12.0405 9.27664 9.625 12.6875 9.625C15.8555 9.625 17.9714 11.6895 18.8234 13.8764C18.8782 14.0166 18.9685 14.1401 19.0855 14.2347C19.2025 14.3294 19.3421 14.3919 19.4906 14.4162C22.225 14.8619 24.5 16.6879 24.5 19.8625C24.5 23.1109 21.8422 25.375 18.5938 25.375H5.79688C3.08984 25.375 0.875 24.0242 0.875 21.0437C0.875 18.393 2.98977 17.0942 4.95523 16.7809V16.7809Z" fill="white"/>
</svg>
