<svg width="28" height="28" viewBox="0 0 28 28" fill="none" xmlns="http://www.w3.org/2000/svg">
<path d="M17.0625 8.09376C16.5411 8.09486 16.021 8.14613 15.5094 8.24688C15.4029 6.60506 14.7696 5.04139 13.7036 3.78818C12.6375 2.53497 11.1957 1.65908 9.59219 1.29063C9.48368 1.26432 9.3702 1.26662 9.26284 1.29729C9.15548 1.32796 9.05792 1.38597 8.97969 1.46563C8.90338 1.54611 8.84763 1.64381 8.81716 1.75045C8.78669 1.85708 8.78242 1.96949 8.80469 2.07813C8.91436 2.54412 8.96942 3.02129 8.96875 3.50001C8.96875 5.18248 8.30039 6.79603 7.11071 7.98572C5.92103 9.1754 4.30747 9.84376 2.625 9.84376C2.14628 9.84443 1.66911 9.78937 1.20313 9.6797C1.09451 9.65647 0.981848 9.66029 0.875049 9.6908C0.76825 9.72132 0.670581 9.7776 0.590626 9.8547C0.510961 9.93293 0.452956 10.0305 0.422282 10.1378C0.391609 10.2452 0.389315 10.3587 0.415626 10.4672C0.651403 11.494 1.09657 12.4612 1.72328 13.3081C2.34999 14.155 3.14474 14.8634 4.05781 15.3891C3.40849 16.191 2.99982 17.1607 2.8792 18.1855C2.75857 19.2103 2.93095 20.2483 3.37632 21.1791C3.8217 22.1099 4.52182 22.8954 5.3955 23.4445C6.26918 23.9936 7.28062 24.2837 8.3125 24.2813H17.0625C19.2091 24.2813 21.2678 23.4285 22.7856 21.9107C24.3035 20.3928 25.1562 18.3341 25.1562 16.1875C25.1562 14.0409 24.3035 11.9822 22.7856 10.4644C21.2678 8.94649 19.2091 8.09376 17.0625 8.09376ZM1.99063 11.1344L2.625 11.1563C4.65468 11.1534 6.60039 10.3458 8.03559 8.9106C9.47079 7.4754 10.2784 5.52968 10.2813 3.50001C10.2813 3.2922 10.2703 3.07345 10.2594 2.86563C11.4107 3.32767 12.4002 4.11876 13.1044 5.14004C13.8086 6.16133 14.1962 7.3675 14.2188 8.60782C13.1191 9.02499 12.1227 9.67493 11.2977 10.5131C10.4727 11.3513 9.8387 12.358 9.43906 13.4641C9.06864 13.3856 8.69114 13.3453 8.3125 13.3438C7.13434 13.3437 5.98754 13.7235 5.04219 14.4266C3.65837 13.7369 2.57344 12.5665 1.99063 11.1344ZM17.0625 22.9688H8.3125C7.2102 22.9688 6.15304 22.5309 5.37359 21.7514C4.59414 20.972 4.15625 19.9148 4.15625 18.8125C4.15625 17.7102 4.59414 16.653 5.37359 15.8736C6.15304 15.0941 7.2102 14.6563 8.3125 14.6563C8.57694 14.6546 8.84084 14.6802 9.1 14.7328C9.01196 15.2127 8.96803 15.6996 8.96875 16.1875C8.96875 16.3616 9.03789 16.5285 9.16096 16.6515C9.28403 16.7746 9.45095 16.8438 9.625 16.8438C9.79905 16.8438 9.96597 16.7746 10.089 16.6515C10.2121 16.5285 10.2813 16.3616 10.2813 16.1875C10.2813 14.8463 10.679 13.5352 11.4241 12.42C12.1692 11.3049 13.2283 10.4357 14.4674 9.92245C15.7065 9.40919 17.07 9.2749 18.3855 9.53656C19.7009 9.79822 20.9092 10.4441 21.8576 11.3924C22.8059 12.3408 23.4518 13.5491 23.7134 14.8646C23.9751 16.18 23.8408 17.5435 23.3276 18.7826C22.8143 20.0217 21.9451 21.0808 20.83 21.8259C19.7148 22.571 18.4037 22.9688 17.0625 22.9688Z" fill="black"/>
</svg>
