<svg width="28" height="28" viewBox="0 0 28 28" fill="none" xmlns="http://www.w3.org/2000/svg">
<path d="M8.70625 4.6812C8.64068 4.52155 8.64065 4.34249 8.70616 4.18281C8.77167 4.02313 8.89745 3.89568 9.05625 3.82808C9.21746 3.76207 9.39809 3.76172 9.55955 3.82713C9.72101 3.89253 9.85049 4.01848 9.92031 4.17808L10.7516 6.20151C10.7871 6.28018 10.8062 6.36528 10.8077 6.45159C10.8092 6.5379 10.7931 6.62361 10.7604 6.70348C10.7276 6.78334 10.6789 6.85568 10.6172 6.91606C10.5555 6.97644 10.4821 7.0236 10.4016 7.05464C10.3235 7.09346 10.2371 7.11226 10.15 7.10933C10.0195 7.10915 9.89195 7.07073 9.78309 6.9988C9.67422 6.92687 9.58884 6.8246 9.5375 6.70464L8.70625 4.6812ZM2.42813 11.6703L4.45156 12.5015C4.53131 12.5351 4.61661 12.5537 4.70312 12.5562C4.85301 12.5538 4.99756 12.5002 5.11272 12.4042C5.22788 12.3082 5.30672 12.1757 5.33611 12.0287C5.36551 11.8817 5.3437 11.7291 5.27431 11.5962C5.20491 11.4634 5.09212 11.3583 4.95469 11.2984L2.93125 10.4562C2.77159 10.3906 2.59253 10.3906 2.43285 10.4561C2.27317 10.5216 2.14573 10.6474 2.07812 10.8062C2.01211 10.9674 2.01177 11.148 2.07717 11.3095C2.14258 11.471 2.26853 11.6004 2.42813 11.6703ZM23.2969 12.5562C23.3834 12.5537 23.4687 12.5351 23.5484 12.5015L25.5719 11.6703C25.7315 11.6004 25.8574 11.471 25.9228 11.3095C25.9882 11.148 25.9879 10.9674 25.9219 10.8062C25.8543 10.6474 25.7268 10.5216 25.5671 10.4561C25.4075 10.3906 25.2284 10.3906 25.0688 10.4562L23.0453 11.2984C22.9079 11.3583 22.7951 11.4634 22.7257 11.5962C22.6563 11.7291 22.6345 11.8817 22.6639 12.0287C22.6933 12.1757 22.7721 12.3082 22.8873 12.4042C23.0024 12.5002 23.147 12.5538 23.2969 12.5562ZM17.5984 7.05464C17.6765 7.09346 17.7629 7.11226 17.85 7.10933C17.9805 7.10915 18.108 7.07073 18.2169 6.9988C18.3258 6.92687 18.4112 6.8246 18.4625 6.70464L19.2937 4.6812C19.3593 4.52155 19.3594 4.34249 19.2938 4.18281C19.2283 4.02313 19.1026 3.89568 18.9438 3.82808C18.7825 3.76207 18.6019 3.76172 18.4404 3.82713C18.279 3.89253 18.1495 4.01848 18.0797 4.17808L17.2484 6.20151C17.2129 6.28018 17.1938 6.36528 17.1923 6.45159C17.1908 6.5379 17.2069 6.62361 17.2396 6.70348C17.2724 6.78334 17.3211 6.85568 17.3828 6.91606C17.4445 6.97644 17.5179 7.0236 17.5984 7.05464ZM26.9062 17.5C26.9062 17.674 26.8371 17.8409 26.714 17.964C26.591 18.0871 26.424 18.1562 26.25 18.1562H1.75C1.57595 18.1562 1.40903 18.0871 1.28596 17.964C1.16289 17.8409 1.09375 17.674 1.09375 17.5C1.09375 17.3259 1.16289 17.159 1.28596 17.0359C1.40903 16.9128 1.57595 16.8437 1.75 16.8437H6.86875C6.70689 15.8136 6.77011 14.7607 7.05408 13.7573C7.33804 12.754 7.83599 11.8241 8.51369 11.0316C9.19138 10.2391 10.0327 9.60284 10.9798 9.16657C11.9269 8.73031 12.9573 8.5044 14 8.5044C15.0427 8.5044 16.0731 8.73031 17.0202 9.16657C17.9673 9.60284 18.8086 10.2391 19.4863 11.0316C20.164 11.8241 20.662 12.754 20.9459 13.7573C21.2299 14.7607 21.2931 15.8136 21.1313 16.8437H26.25C26.424 16.8437 26.591 16.9128 26.714 17.0359C26.8371 17.159 26.9062 17.3259 26.9062 17.5ZM8.19219 16.8437H19.8078C19.8736 16.4828 19.9066 16.1168 19.9062 15.75C19.9062 14.1835 19.284 12.6812 18.1763 11.5736C17.0687 10.466 15.5664 9.8437 14 9.8437C12.4336 9.8437 10.9313 10.466 9.82365 11.5736C8.71601 12.6812 8.09375 14.1835 8.09375 15.75C8.09345 16.1168 8.1264 16.4828 8.19219 16.8437ZM22.75 21.2187H5.25C5.07595 21.2187 4.90903 21.2878 4.78596 21.4109C4.66289 21.534 4.59375 21.7009 4.59375 21.875C4.59375 22.049 4.66289 22.2159 4.78596 22.339C4.90903 22.4621 5.07595 22.5312 5.25 22.5312H22.75C22.924 22.5312 23.091 22.4621 23.214 22.339C23.3371 22.2159 23.4062 22.049 23.4062 21.875C23.4062 21.7009 23.3371 21.534 23.214 21.4109C23.091 21.2878 22.924 21.2187 22.75 21.2187Z" fill="black"/>
</svg>
