<svg width="28" height="28" viewBox="0 0 28 28" fill="none" xmlns="http://www.w3.org/2000/svg">
<path d="M14 2.33331C11.6926 2.33331 9.43692 3.01755 7.51835 4.2995C5.59977 5.58145 4.10443 7.40353 3.22141 9.53534C2.33838 11.6671 2.10734 14.0129 2.55751 16.276C3.00767 18.5391 4.11881 20.6179 5.75042 22.2496C7.38203 23.8812 9.46083 24.9923 11.7239 25.4425C13.9871 25.8926 16.3328 25.6616 18.4646 24.7786C20.5964 23.8956 22.4185 22.4002 23.7005 20.4816C24.9824 18.5631 25.6667 16.3074 25.6667 14C25.6667 12.4679 25.3649 10.9508 24.7786 9.53534C24.1923 8.11987 23.3329 6.83375 22.2496 5.7504C21.1662 4.66705 19.8801 3.80769 18.4646 3.22139C17.0492 2.63508 15.5321 2.33331 14 2.33331ZM14 23.3333C12.154 23.3333 10.3495 22.7859 8.81468 21.7604C7.27982 20.7348 6.08354 19.2771 5.37712 17.5717C4.67071 15.8662 4.48588 13.9896 4.846 12.1791C5.20613 10.3686 6.09505 8.70561 7.40034 7.40032C8.70563 6.09503 10.3687 5.20611 12.1792 4.84598C13.9896 4.48586 15.8663 4.67069 17.5717 5.3771C19.2772 6.08352 20.7348 7.2798 21.7604 8.81466C22.7859 10.3495 23.3333 12.154 23.3333 14C23.3333 16.4753 22.35 18.8493 20.5997 20.5996C18.8493 22.35 16.4754 23.3333 14 23.3333Z" fill="black" fill-opacity="0.5"/>
<path d="M18.2933 9.70669C18.1336 9.53458 17.9257 9.41467 17.6967 9.36263C17.4678 9.31059 17.2284 9.32885 17.01 9.41502L12.0983 11.3984C11.9539 11.457 11.8228 11.544 11.7126 11.6542C11.6023 11.7645 11.5153 11.8956 11.4567 12.04L9.415 17.01C9.34257 17.2055 9.32385 17.4168 9.36078 17.622C9.39772 17.8272 9.48895 18.0187 9.625 18.1767H9.68333C9.77734 18.3112 9.89867 18.4244 10.0394 18.5088C10.1801 18.5933 10.3371 18.647 10.5 18.6667C10.6517 18.6685 10.8023 18.6408 10.9433 18.585L15.855 16.6017C15.9994 16.543 16.1306 16.456 16.2408 16.3458C16.351 16.2356 16.438 16.1044 16.4967 15.96L18.5383 10.99C18.6302 10.7761 18.656 10.5396 18.6123 10.3108C18.5687 10.0821 18.4576 9.87173 18.2933 9.70669ZM12.6 15.4117L13.4283 13.3817L15.4 12.5884L14.5717 14.6184L12.6 15.4117Z" fill="black" fill-opacity="0.5"/>
</svg>
