<svg width="28" height="28" viewBox="0 0 28 28" fill="none" xmlns="http://www.w3.org/2000/svg">
<rect width="28" height="28" fill="white"/>
<path d="M12.6 15.4117L14.5717 14.6184L15.4 12.5884L13.4283 13.3817L12.6 15.4117Z" fill="#2FD9E3"/>
<path d="M14 2.33337C11.6926 2.33337 9.43692 3.01761 7.51835 4.29956C5.59977 5.58151 4.10443 7.4036 3.22141 9.5354C2.33838 11.6672 2.10734 14.013 2.55751 16.2761C3.00767 18.5392 4.11881 20.618 5.75042 22.2496C7.38203 23.8812 9.46083 24.9924 11.7239 25.4425C13.9871 25.8927 16.3328 25.6617 18.4646 24.7786C20.5964 23.8956 22.4185 22.4003 23.7005 20.4817C24.9824 18.5631 25.6667 16.3075 25.6667 14C25.6667 12.468 25.3649 10.9509 24.7786 9.5354C24.1923 8.11994 23.3329 6.83381 22.2496 5.75046C21.1662 4.66711 19.8801 3.80775 18.4646 3.22145C17.0492 2.63514 15.5321 2.33337 14 2.33337ZM18.585 10.99L16.5433 15.96C16.4847 16.1044 16.3977 16.2356 16.2874 16.3458C16.1772 16.456 16.0461 16.543 15.9017 16.6017L10.99 18.585C10.8344 18.6471 10.6673 18.675 10.5 18.6667C10.3448 18.6645 10.1916 18.6315 10.0494 18.5693C9.90715 18.5072 9.77874 18.4174 9.67167 18.305H9.61333C9.47728 18.1471 9.38605 17.9555 9.34912 17.7504C9.31219 17.5452 9.33091 17.3339 9.40333 17.1384L11.445 12.1684C11.5037 12.024 11.5907 11.8928 11.7009 11.7826C11.8111 11.6724 11.9423 11.5854 12.0867 11.5267L16.9983 9.54337C17.2168 9.4572 17.4561 9.43894 17.6851 9.49098C17.914 9.54302 18.1219 9.66293 18.2817 9.83504C18.4316 9.98238 18.5389 10.1675 18.5923 10.3708C18.6457 10.5741 18.6432 10.7881 18.585 10.99Z" fill="#2FD9E3"/>
</svg>
