<svg width="28" height="28" viewBox="0 0 28 28" fill="none" xmlns="http://www.w3.org/2000/svg">
<rect width="28" height="28" fill="white"/>
<path d="M25.6667 23.3333V14.203C25.6667 13.5678 25.5371 12.9392 25.2858 12.3559C25.0344 11.7725 24.6666 11.2466 24.2048 10.8103L15.603 2.68101C15.1698 2.27143 14.5962 2.04321 14 2.04321C13.4038 2.04321 12.8302 2.27143 12.397 2.68101L3.79517 10.8103C3.33343 11.2466 2.96561 11.7725 2.71425 12.3559C2.46288 12.9392 2.33327 13.5678 2.33333 14.203V23.3333C2.33333 23.9522 2.57917 24.5457 3.01675 24.9833C3.45434 25.4208 4.04783 25.6667 4.66667 25.6667H23.3333C23.9522 25.6667 24.5457 25.4208 24.9832 24.9833C25.4208 24.5457 25.6667 23.9522 25.6667 23.3333Z" fill="#2FD9E3"/>
</svg>
