<svg width="18" height="18" viewBox="0 0 18 18" fill="none" xmlns="http://www.w3.org/2000/svg">
<g clip-path="url(#clip0_24_23)">
<path fill-rule="evenodd" clip-rule="evenodd" d="M2.25 17.4375V2.25C2.25 1.65326 2.48705 1.08097 2.90901 0.65901C3.33097 0.237053 3.90326 0 4.5 0L13.5 0C14.0967 0 14.669 0.237053 15.091 0.65901C15.5129 1.08097 15.75 1.65326 15.75 2.25V17.4375C15.7501 17.5352 15.7247 17.6312 15.6764 17.7161C15.6281 17.801 15.5585 17.8718 15.4745 17.9217C15.3905 17.9715 15.2949 17.9986 15.1973 18.0003C15.0996 18.002 15.0032 17.9783 14.9175 17.9314L9 14.7026L3.0825 17.9314C2.99681 17.9783 2.90038 18.002 2.80272 18.0003C2.70505 17.9986 2.60951 17.9715 2.5255 17.9217C2.44149 17.8718 2.37191 17.801 2.3236 17.7161C2.2753 17.6312 2.24993 17.5352 2.25 17.4375ZM12.2108 6.58575C12.3164 6.48013 12.3757 6.33687 12.3757 6.1875C12.3757 6.03813 12.3164 5.89487 12.2108 5.78925C12.1051 5.68363 11.9619 5.62429 11.8125 5.62429C11.6631 5.62429 11.5199 5.68363 11.4142 5.78925L8.4375 8.76713L7.14825 7.47675C7.09595 7.42445 7.03386 7.38297 6.96553 7.35466C6.8972 7.32636 6.82396 7.31179 6.75 7.31179C6.67604 7.31179 6.6028 7.32636 6.53447 7.35466C6.46614 7.38297 6.40405 7.42445 6.35175 7.47675C6.29945 7.52905 6.25797 7.59114 6.22966 7.65947C6.20136 7.7278 6.18679 7.80104 6.18679 7.875C6.18679 7.94896 6.20136 8.0222 6.22966 8.09053C6.25797 8.15886 6.29945 8.22095 6.35175 8.27325L8.03925 9.96075C8.0915 10.0131 8.15357 10.0547 8.22191 10.0831C8.29025 10.1114 8.36351 10.126 8.4375 10.126C8.51149 10.126 8.58475 10.1114 8.65309 10.0831C8.72143 10.0547 8.7835 10.0131 8.83575 9.96075L12.2108 6.58575Z" fill="black"/>
</g>
<defs>
<clipPath id="clip0_24_23">
<rect width="18" height="18" fill="white"/>
</clipPath>
</defs>
</svg>
