<svg width="28" height="28" viewBox="0 0 28 28" fill="none" xmlns="http://www.w3.org/2000/svg">
<path d="M14 26.775C13.6694 26.775 13.3926 26.6634 13.1693 26.4401C12.9453 26.2161 12.8333 25.9389 12.8333 25.6083V24.4416C10.4028 24.1694 8.31756 23.1634 6.57767 21.4235C4.837 19.6828 3.83056 17.5972 3.55833 15.1666H2.39167C2.06111 15.1666 1.78383 15.0546 1.55983 14.8306C1.33661 14.6074 1.225 14.3305 1.225 14C1.225 13.6694 1.33661 13.3921 1.55983 13.1681C1.78383 12.9449 2.06111 12.8333 2.39167 12.8333H3.55833C3.83056 10.4028 4.837 8.31714 6.57767 6.57648C8.31756 4.83659 10.4028 3.83053 12.8333 3.55831V2.39164C12.8333 2.06109 12.9453 1.78381 13.1693 1.55981C13.3926 1.33659 13.6694 1.22498 14 1.22498C14.3306 1.22498 14.6078 1.33659 14.8318 1.55981C15.0551 1.78381 15.1667 2.06109 15.1667 2.39164V3.55831C17.5972 3.83053 19.6828 4.83659 21.4235 6.57648C23.1634 8.31714 24.1694 10.4028 24.4417 12.8333H25.6083C25.9389 12.8333 26.2162 12.9449 26.4402 13.1681C26.6634 13.3921 26.775 13.6694 26.775 14C26.775 14.3305 26.6634 14.6074 26.4402 14.8306C26.2162 15.0546 25.9389 15.1666 25.6083 15.1666H24.4417C24.1694 17.5972 23.1634 19.6828 21.4235 21.4235C19.6828 23.1634 17.5972 24.1694 15.1667 24.4416V25.6083C15.1667 25.9389 15.0551 26.2161 14.8318 26.4401C14.6078 26.6634 14.3306 26.775 14 26.775ZM14 22.1666C16.2556 22.1666 18.1806 21.3694 19.775 19.775C21.3694 18.1805 22.1667 16.2555 22.1667 14C22.1667 11.7444 21.3694 9.81942 19.775 8.22498C18.1806 6.63053 16.2556 5.83331 14 5.83331C11.7444 5.83331 9.81944 6.63053 8.225 8.22498C6.63056 9.81942 5.83333 11.7444 5.83333 14C5.83333 16.2555 6.63056 18.1805 8.225 19.775C9.81944 21.3694 11.7444 22.1666 14 22.1666ZM14 18.6666C12.7167 18.6666 11.6181 18.2097 10.7042 17.2958C9.79028 16.3819 9.33333 15.2833 9.33333 14C9.33333 12.7166 9.79028 11.618 10.7042 10.7041C11.6181 9.79025 12.7167 9.33331 14 9.33331C15.2833 9.33331 16.3819 9.79025 17.2958 10.7041C18.2097 11.618 18.6667 12.7166 18.6667 14C18.6667 15.2833 18.2097 16.3819 17.2958 17.2958C16.3819 18.2097 15.2833 18.6666 14 18.6666ZM14 16.3333C14.6417 16.3333 15.1912 16.1046 15.6485 15.6473C16.1051 15.1908 16.3333 14.6416 16.3333 14C16.3333 13.3583 16.1051 12.8088 15.6485 12.3515C15.1912 11.8949 14.6417 11.6666 14 11.6666C13.3583 11.6666 12.8092 11.8949 12.3527 12.3515C11.8953 12.8088 11.6667 13.3583 11.6667 14C11.6667 14.6416 11.8953 15.1908 12.3527 15.6473C12.8092 16.1046 13.3583 16.3333 14 16.3333Z" fill="black" fill-opacity="0.75"/>
</svg>
