<svg width="26" height="25" viewBox="0 0 26 25" fill="none" xmlns="http://www.w3.org/2000/svg">
<path d="M21.1667 0.166748L15.3334 6.00008V18.8334L21.1667 13.5834V0.166748ZM23.5 4.83341V20.5834C22.2167 20.1751 20.8167 20.0001 19.4167 20.0001C17.4334 20.0001 14.575 20.7584 13 21.7501V6.00008C11.3084 4.71675 8.85835 4.25008 6.58335 4.25008C4.30835 4.25008 1.85835 4.71675 0.166687 6.00008V23.0917C0.166687 23.3834 0.458354 23.6751 0.75002 23.6751C0.866687 23.6751 0.92502 23.6167 1.04169 23.6167C2.61669 22.8584 4.89169 22.3334 6.58335 22.3334C8.85835 22.3334 11.3084 22.8001 13 24.0834C14.575 23.0917 17.4334 22.3334 19.4167 22.3334C21.3417 22.3334 23.325 22.6834 24.9584 23.5584C25.075 23.6167 25.1334 23.6167 25.25 23.6167C25.5417 23.6167 25.8334 23.3251 25.8334 23.0334V6.00008C25.1334 5.47508 24.375 5.12508 23.5 4.83341ZM10.6667 20.4784C9.20835 20.1051 7.75002 20.0001 6.58335 20.0001C5.34669 20.0001 3.87669 20.2217 2.50002 20.5834V7.31841C3.56169 6.85175 4.99669 6.58341 6.58335 6.58341C8.17002 6.58341 9.60502 6.85175 10.6667 7.31841V20.4784Z" fill="black" fill-opacity="0.75"/>
</svg>
