<svg width="28" height="28" viewBox="0 0 28 28" fill="none" xmlns="http://www.w3.org/2000/svg">
<g opacity="0.75">
<path d="M26.1256 4.81446C26.0301 4.73683 25.9176 4.68295 25.7972 4.65726C25.6769 4.63157 25.5522 4.6348 25.4333 4.66668L17.9589 7.00002L10.4689 3.19668C10.3665 3.1493 10.255 3.12476 10.1422 3.12476C10.0294 3.12476 9.91794 3.1493 9.81555 3.19668L2.03777 6.37779C1.89451 6.43665 1.77208 6.53693 1.68617 6.6658C1.60026 6.79467 1.55478 6.94625 1.55555 7.10113V23.03C1.55619 23.1574 1.5881 23.2827 1.64849 23.3948C1.70888 23.507 1.79589 23.6026 1.90189 23.6733C2.00788 23.744 2.12961 23.7875 2.25637 23.8001C2.38313 23.8127 2.51105 23.794 2.62889 23.7456L10.1111 20.6733L17.57 24.5C17.6807 24.5567 17.8034 24.5861 17.9278 24.5856C18.0051 24.5973 18.0838 24.5973 18.1611 24.5856L25.9389 22.1589C26.1028 22.1076 26.2451 22.0034 26.3435 21.8627C26.442 21.722 26.4912 21.5527 26.4833 21.3811V5.44446C26.4793 5.3183 26.4446 5.19502 26.3823 5.08526C26.3199 4.9755 26.2318 4.88256 26.1256 4.81446ZM24.8889 20.8056L18.4178 22.8278V21.0467H17.1733V22.6022L10.64 19.25V17.9356H9.39555V19.2733L3.11111 21.8633V7.61446L9.39555 5.02446V6.85224H10.64V5.03224L17.1733 8.37668V10.01H18.4178V8.55557L24.8889 6.50224V20.8056Z" fill="black"/>
<path d="M17.1733 11.7134H18.4178V14.6767H17.1733V11.7134Z" fill="black"/>
<path d="M17.1733 16.38H18.4178V19.3433H17.1733V16.38Z" fill="black"/>
<path d="M9.39557 8.60217H10.64V11.5655H9.39557V8.60217Z" fill="black"/>
<path d="M9.39557 13.3234H10.64V16.24H9.39557V13.3234Z" fill="black"/>
</g>
</svg>
