<svg width="28" height="28" viewBox="0 0 28 28" fill="none" xmlns="http://www.w3.org/2000/svg">
<path d="M14 22.3266C13.7005 22.6449 13.339 22.8985 12.9376 23.0716C12.5363 23.2448 12.1038 23.3339 11.6667 23.3334H4.37504C3.83356 23.3334 3.31425 23.1183 2.93136 22.7354C2.54848 22.3525 2.33337 21.8332 2.33337 21.2917V6.70842C2.33337 5.58142 3.24804 4.66675 4.37504 4.66675H11.6667C12.586 4.66675 13.4155 5.05292 14 5.67358C14.2996 5.35526 14.6611 5.10169 15.0624 4.92853C15.4638 4.75536 15.8963 4.66627 16.3334 4.66675H23.625C24.752 4.66675 25.6667 5.58142 25.6667 6.70842V16.9167C25.6667 16.0417 25.3715 15.1831 24.8559 14.4843C24.5942 14.1294 24.2771 13.819 23.9167 13.5649V6.70842C23.9167 6.63106 23.886 6.55687 23.8313 6.50218C23.7766 6.44748 23.7024 6.41675 23.625 6.41675H16.3334C15.5284 6.41675 14.875 7.07008 14.875 7.87508V20.1251C14.875 20.4751 14.9987 20.7982 15.2052 21.0502C15.2425 21.3466 15.3044 21.6382 15.3895 21.9206C15.54 22.4187 15.7617 22.8889 16.0405 23.3206C15.2618 23.2497 14.5359 22.8961 14 22.3266ZM4.08337 6.70842V21.2917C4.08337 21.4527 4.21404 21.5834 4.37504 21.5834H11.6667C12.4717 21.5834 13.125 20.9301 13.125 20.1251V7.87508C13.125 7.07008 12.4717 6.41675 11.6667 6.41675H4.37504C4.29769 6.41675 4.2235 6.44748 4.1688 6.50218C4.1141 6.55687 4.08337 6.63106 4.08337 6.70842ZM23.9319 23.3101C24.9819 22.6987 25.6667 21.6674 25.6667 20.4167C25.6667 20.262 25.7282 20.1137 25.8376 20.0043C25.947 19.8949 26.0953 19.8334 26.25 19.8334C26.4047 19.8334 26.5531 19.8949 26.6625 20.0043C26.7719 20.1137 26.8334 20.262 26.8334 20.4167C26.8334 22.7501 24.7917 24.7614 22.1667 25.0519V26.2501C22.1667 26.4048 22.1052 26.5532 21.9959 26.6626C21.8865 26.772 21.7381 26.8334 21.5834 26.8334C21.4287 26.8334 21.2803 26.772 21.1709 26.6626C21.0615 26.5532 21 26.4048 21 26.2501V25.0519C19.6012 24.8967 18.368 24.2539 17.521 23.3334C17.1567 22.941 16.8634 22.4882 16.6542 21.9953C16.4421 21.496 16.333 20.9591 16.3334 20.4167C16.3334 20.262 16.3948 20.1137 16.5042 20.0043C16.6136 19.8949 16.762 19.8334 16.9167 19.8334C17.0714 19.8334 17.2198 19.8949 17.3292 20.0043C17.4386 20.1137 17.5 20.262 17.5 20.4167C17.4979 21.2183 17.7959 21.9916 18.3354 22.5844C18.599 22.8772 18.9164 23.1292 19.2745 23.3334C19.9314 23.7067 20.727 23.9167 21.5834 23.9167C22.4584 23.9167 23.2669 23.6974 23.9319 23.3101ZM21.5834 22.7501C21.1308 22.7538 20.6837 22.65 20.2791 22.4471C19.8744 22.2443 19.5237 21.9483 19.2559 21.5834C18.8778 21.0779 18.6714 20.4647 18.6667 19.8334V16.9167C18.6667 15.4537 19.8334 14.0001 21.5834 14.0001C22.5925 14.0001 23.4069 14.4866 23.9167 15.1772C24.29 15.6836 24.5 16.3007 24.5 16.9167V19.8334C24.5 21.2871 23.3334 22.7501 21.5834 22.7501Z" fill="black"/>
</svg>
