<svg width="18" height="18" viewBox="0 0 18 18" fill="none" xmlns="http://www.w3.org/2000/svg">
<path d="M9 17.14C9.31497 17.1327 9.61723 17.0143 9.8533 16.8057C10.0894 16.5971 10.2441 16.3117 10.29 16H7.66C7.70724 16.3202 7.86917 16.6123 8.11565 16.822C8.36214 17.0317 8.67642 17.1447 9 17.14Z" fill="white"/>
<path d="M16.255 13.915C15.7728 13.4852 15.3507 12.9924 15 12.45C14.6171 11.7013 14.3876 10.8836 14.325 10.045V7.575C14.323 7.27497 14.2962 6.97563 14.245 6.68C13.8514 6.60133 13.4732 6.4595 13.125 6.26C13.2577 6.68742 13.3252 7.13244 13.325 7.58V10.05C13.3863 11.073 13.6677 12.0707 14.15 12.975C14.4952 13.522 14.9048 14.0256 15.37 14.475H2.56499C3.0302 14.0256 3.43979 13.522 3.78499 12.975C4.2673 12.0707 4.54871 11.073 4.60999 10.05V7.575C4.60736 6.99634 4.7189 6.42285 4.93821 5.88736C5.15753 5.35187 5.48032 4.8649 5.8881 4.45433C6.29588 4.04376 6.78064 3.71766 7.31463 3.4947C7.84861 3.27175 8.42133 3.15631 8.99999 3.155C9.84688 3.15567 10.6748 3.40612 11.38 3.875C11.3022 3.58949 11.2586 3.29578 11.25 3V2.685C10.7279 2.42818 10.1671 2.25924 9.58999 2.185V1.555C9.58999 1.37796 9.51967 1.20818 9.39449 1.083C9.26931 0.957823 9.09953 0.887497 8.92249 0.887497C8.74546 0.887497 8.57568 0.957823 8.4505 1.083C8.32532 1.20818 8.25499 1.37796 8.25499 1.555V2.21C6.96285 2.39227 5.78028 3.03587 4.9256 4.02196C4.07093 5.00806 3.60186 6.27007 3.60499 7.575V10.045C3.54237 10.8836 3.31288 11.7013 2.92999 12.45C2.58544 12.9912 2.17009 13.4839 1.69499 13.915C1.64166 13.9619 1.59891 14.0195 1.5696 14.0842C1.54029 14.1488 1.52508 14.219 1.52499 14.29V14.97C1.52499 15.1026 1.57767 15.2298 1.67144 15.3236C1.76521 15.4173 1.89239 15.47 2.02499 15.47H15.925C16.0576 15.47 16.1848 15.4173 16.2785 15.3236C16.3723 15.2298 16.425 15.1026 16.425 14.97V14.29C16.4249 14.219 16.4097 14.1488 16.3804 14.0842C16.3511 14.0195 16.3083 13.9619 16.255 13.915Z" fill="white"/>
<path d="M15 5.5C16.3807 5.5 17.5 4.38071 17.5 3C17.5 1.61929 16.3807 0.5 15 0.5C13.6193 0.5 12.5 1.61929 12.5 3C12.5 4.38071 13.6193 5.5 15 5.5Z" fill="#FF4E4C"/>
</svg>
