<svg width="18" height="18" viewBox="0 0 18 18" fill="none" xmlns="http://www.w3.org/2000/svg">
<path d="M16.255 13.915C15.7728 13.4852 15.3507 12.9924 15 12.45C14.6171 11.7013 14.3876 10.8836 14.325 10.045V7.575C14.3283 6.2578 13.8505 4.98473 12.9814 3.99498C12.1122 3.00523 10.9116 2.36693 9.60499 2.2V1.555C9.60499 1.37796 9.53467 1.20818 9.40949 1.083C9.28431 0.957823 9.11453 0.887497 8.93749 0.887497C8.76046 0.887497 8.59068 0.957823 8.4655 1.083C8.34032 1.20818 8.26999 1.37796 8.26999 1.555V2.21C6.97512 2.38896 5.78898 3.03112 4.93126 4.01755C4.07354 5.00398 3.60236 6.26782 3.60499 7.575V10.045C3.54237 10.8836 3.31288 11.7013 2.92999 12.45C2.58544 12.9912 2.17009 13.4839 1.69499 13.915C1.64166 13.9619 1.59891 14.0195 1.5696 14.0842C1.54029 14.1488 1.52508 14.219 1.52499 14.29V14.97C1.52499 15.1026 1.57767 15.2298 1.67144 15.3236C1.76521 15.4173 1.89239 15.47 2.02499 15.47H15.925C16.0576 15.47 16.1848 15.4173 16.2785 15.3236C16.3723 15.2298 16.425 15.1026 16.425 14.97V14.29C16.4249 14.219 16.4097 14.1488 16.3804 14.0842C16.3511 14.0195 16.3083 13.9619 16.255 13.915ZM2.56499 14.47C3.0302 14.0206 3.43979 13.517 3.78499 12.97C4.2673 12.0657 4.54871 11.068 4.60999 10.045V7.575C4.59016 6.98901 4.68846 6.40503 4.89902 5.85783C5.10958 5.31063 5.4281 4.81139 5.83562 4.38985C6.24314 3.96831 6.73131 3.63308 7.27108 3.40413C7.81085 3.17519 8.39118 3.0572 8.97749 3.0572C9.56381 3.0572 10.1441 3.17519 10.6839 3.40413C11.2237 3.63308 11.7119 3.96831 12.1194 4.38985C12.5269 4.81139 12.8454 5.31063 13.056 5.85783C13.2665 6.40503 13.3648 6.98901 13.345 7.575V10.045C13.4063 11.068 13.6877 12.0657 14.17 12.97C14.5152 13.517 14.9248 14.0206 15.39 14.47H2.56499Z" fill="white"/>
<path d="M9 17.14C9.31497 17.1327 9.61723 17.0143 9.8533 16.8057C10.0894 16.5971 10.2441 16.3117 10.29 16H7.66C7.70724 16.3202 7.86917 16.6123 8.11565 16.822C8.36214 17.0317 8.67642 17.1447 9 17.14V17.14Z" fill="white"/>
</svg>
