<svg width="22" height="22" viewBox="0 0 22 22" fill="none" xmlns="http://www.w3.org/2000/svg">
<path d="M16.9125 5.68343C16.5864 5.5294 16.2236 5.47007 15.8654 5.51221C15.5072 5.55435 15.1681 5.69626 14.8867 5.92176L10.5417 9.51509V7.14093C10.5381 6.83123 10.4454 6.52911 10.2747 6.27066C10.104 6.01221 9.86258 5.80835 9.57917 5.68343C9.25307 5.5294 8.89026 5.47007 8.53209 5.51221C8.17392 5.55435 7.83478 5.69626 7.55334 5.92176L2.87834 9.78093C2.69501 9.92688 2.54695 10.1123 2.44519 10.3234C2.34343 10.5345 2.29059 10.7658 2.29059 11.0001C2.29059 11.2344 2.34343 11.4657 2.44519 11.6768C2.54695 11.8879 2.69501 12.0733 2.87834 12.2193L7.55334 16.0784C7.89032 16.3517 8.31113 16.5006 8.745 16.5001C9.03287 16.4984 9.31712 16.4359 9.57917 16.3168C9.86258 16.1918 10.104 15.988 10.2747 15.7295C10.4454 15.4711 10.5381 15.169 10.5417 14.8593V12.4851L14.8867 16.0784C15.2237 16.3517 15.6445 16.5006 16.0783 16.5001C16.3662 16.4984 16.6505 16.4359 16.9125 16.3168C17.1959 16.1918 17.4374 15.988 17.608 15.7295C17.7787 15.4711 17.8714 15.169 17.875 14.8593V7.14093C17.8714 6.83123 17.7787 6.52911 17.608 6.27066C17.4374 6.01221 17.1959 5.80835 16.9125 5.68343Z" fill="black"/>
</svg>
