<svg width="22" height="22" viewBox="0 0 22 22" fill="none" xmlns="http://www.w3.org/2000/svg">
<path d="M7.5625 4.8125C8.10951 4.8125 8.63411 5.0298 9.02091 5.41659C9.4077 5.80339 9.625 6.32799 9.625 6.875V15.125C9.625 15.672 9.4077 16.1966 9.02091 16.5834C8.63411 16.9702 8.10951 17.1875 7.5625 17.1875C7.01549 17.1875 6.49089 16.9702 6.10409 16.5834C5.7173 16.1966 5.5 15.672 5.5 15.125V6.875C5.5 6.32799 5.7173 5.80339 6.10409 5.41659C6.49089 5.0298 7.01549 4.8125 7.5625 4.8125ZM14.4375 4.8125C14.9845 4.8125 15.5091 5.0298 15.8959 5.41659C16.2827 5.80339 16.5 6.32799 16.5 6.875V15.125C16.5 15.672 16.2827 16.1966 15.8959 16.5834C15.5091 16.9702 14.9845 17.1875 14.4375 17.1875C13.8905 17.1875 13.3659 16.9702 12.9791 16.5834C12.5923 16.1966 12.375 15.672 12.375 15.125V6.875C12.375 6.32799 12.5923 5.80339 12.9791 5.41659C13.3659 5.0298 13.8905 4.8125 14.4375 4.8125Z" fill="white"/>
</svg>
