<svg width="22" height="22" viewBox="0 0 22 22" fill="none" xmlns="http://www.w3.org/2000/svg">
<path d="M5.0875 16.3166C5.41359 16.4706 5.7764 16.5299 6.13458 16.4878C6.49275 16.4457 6.83189 16.3037 7.11333 16.0782L11.4583 12.4849V14.8591C11.4619 15.1688 11.5546 15.4709 11.7253 15.7293C11.896 15.9878 12.1374 16.1916 12.4208 16.3166C12.7469 16.4706 13.1097 16.5299 13.4679 16.4878C13.8261 16.4457 14.1652 16.3037 14.4467 16.0782L19.1217 12.2191C19.305 12.0731 19.453 11.8877 19.5548 11.6766C19.6566 11.4655 19.7094 11.2342 19.7094 10.9999C19.7094 10.7656 19.6566 10.5343 19.5548 10.3232C19.453 10.1121 19.305 9.92669 19.1217 9.78074L14.4467 5.92157C14.1097 5.64829 13.6889 5.49939 13.255 5.49991C12.9671 5.5016 12.6829 5.56407 12.4208 5.68324C12.1374 5.80816 11.896 6.01202 11.7253 6.27047C11.5546 6.52892 11.4619 6.83104 11.4583 7.14074L11.4583 9.51491L7.11333 5.92157C6.77635 5.64829 6.35553 5.49939 5.92166 5.49991C5.6338 5.5016 5.34954 5.56407 5.0875 5.68324C4.80409 5.80816 4.56263 6.01202 4.39195 6.27047C4.22128 6.52892 4.1286 6.83104 4.125 7.14074L4.125 14.8591C4.1286 15.1688 4.22128 15.4709 4.39195 15.7293C4.56263 15.9878 4.80409 16.1916 5.0875 16.3166Z" fill="black"/>
</svg>
