<svg width="22" height="22" viewBox="0 0 22 22" fill="none" xmlns="http://www.w3.org/2000/svg">
<path d="M20.625 5.5H17.8062C17.4625 3.91875 16.0875 2.75 14.4375 2.75C12.7875 2.75 11.4125 3.91875 11.0688 5.5H1.375V6.875H11.0688C11.4125 8.45625 12.7875 9.625 14.4375 9.625C16.0875 9.625 17.4625 8.45625 17.8062 6.875H20.625V5.5ZM14.4375 8.25C13.2688 8.25 12.375 7.35625 12.375 6.1875C12.375 5.01875 13.2688 4.125 14.4375 4.125C15.6062 4.125 16.5 5.01875 16.5 6.1875C16.5 7.35625 15.6062 8.25 14.4375 8.25ZM1.375 16.5H4.19375C4.5375 18.0813 5.9125 19.25 7.5625 19.25C9.2125 19.25 10.5875 18.0813 10.9312 16.5H20.625V15.125H10.9312C10.5875 13.5437 9.2125 12.375 7.5625 12.375C5.9125 12.375 4.5375 13.5437 4.19375 15.125H1.375V16.5ZM7.5625 13.75C8.73125 13.75 9.625 14.6438 9.625 15.8125C9.625 16.9812 8.73125 17.875 7.5625 17.875C6.39375 17.875 5.5 16.9812 5.5 15.8125C5.5 14.6438 6.39375 13.75 7.5625 13.75Z" fill="white"/>
</svg>
