<svg width="12" height="12" viewBox="0 0 12 12" fill="none" xmlns="http://www.w3.org/2000/svg">
<path d="M6.56474 8.35501L10.1617 4.24426C10.5862 3.75901 10.2412 3.00001 9.59699 3.00001L2.40299 3.00001C2.25881 2.99989 2.11764 3.04133 1.99641 3.11937C1.87517 3.19741 1.779 3.30874 1.7194 3.44003C1.65981 3.57133 1.63933 3.71701 1.6604 3.85965C1.68148 4.00228 1.74322 4.13582 1.83824 4.24426L5.43524 8.35426C5.50564 8.43482 5.59245 8.49939 5.68986 8.54362C5.78727 8.58786 5.89301 8.61075 5.99999 8.61075C6.10697 8.61075 6.21272 8.58786 6.31012 8.54362C6.40753 8.49939 6.49435 8.43482 6.56474 8.35426V8.35501Z" fill="black" fill-opacity="0.75"/>
</svg>
