<svg width="12" height="12" viewBox="0 0 12 12" fill="none" xmlns="http://www.w3.org/2000/svg">
<path d="M5.43526 3.64499L1.83826 7.75574C1.41376 8.24099 1.75876 8.99999 2.40301 8.99999H9.59701C9.74119 9.00011 9.88236 8.95867 10.0036 8.88063C10.1248 8.80259 10.221 8.69126 10.2806 8.55997C10.3402 8.42867 10.3607 8.28299 10.3396 8.14035C10.3185 7.99772 10.2568 7.86418 10.1618 7.75574L6.56476 3.64574C6.49436 3.56518 6.40755 3.50061 6.31014 3.45638C6.21273 3.41214 6.10699 3.38925 6.00001 3.38925C5.89303 3.38925 5.78728 3.41214 5.68988 3.45638C5.59247 3.50061 5.50565 3.56518 5.43526 3.64574V3.64499Z" fill="black" fill-opacity="0.75"/>
</svg>
